<svg id="Layer_1" data-name="Layer 1" xmlns="http://www.w3.org/2000/svg" viewBox="0 0 318.4 260"><defs><style>.cls-1{fill:#380ade;}</style></defs><path class="cls-1" d="M576.6,266.6c-2.1,3.6-5.4,5.8-8.9,7.9L432.6,357.4c-10.2,6.2-20.3,6.2-30.5,0L266.2,274a29,29,0,0,1-2.9-1.9c-7.2-4.9-6.8-12,1-16s16-8.1,24.1-12.1l116.7-58.3c8.1-4.1,16.3-4.2,24.4-.1L569,255.3a14.5,14.5,0,0,1,7.6,7.6Z" transform="translate(-258.2 -182.6)"/><path class="cls-1" d="M538.7,350.7c0,8.9-.2,17.8,0,26.7.3,10.4-3.7,18.9-10.5,26.4-9.8,10.9-22.1,18.3-35.5,23.9-30.4,12.9-62.3,16.9-95.1,13.9-22.6-2.2-44.4-7.7-64.6-18.2-11.7-6-22.4-13.4-30.2-24.3a32.7,32.7,0,0,1-6.7-20.2V325.4a16.2,16.2,0,0,1,.6-5.8c1.1-2.9,3-3.9,5.9-2.9a19.8,19.8,0,0,1,3.8,2l88.1,54q23,13.9,45.9-.1l91-55.8,1.8-1.1c3-1.5,4.8-.6,5.3,2.7a26.8,26.8,0,0,1,.2,4Z" transform="translate(-258.2 -182.6)"/><path class="cls-1" d="M565.4,352.5c0,15,.1,30,0,45a6.4,6.4,0,0,0,3,6.2,15.7,15.7,0,0,1,6.1,17.3c-1.9,6.8-6.5,10.8-13.5,12a16.3,16.3,0,0,1-17.3-9.4c-3-6.4-1.4-15,4.3-19.1,3-2.2,3.9-4.6,3.9-8.3-.1-27.1,0-54.3-.2-81.4,0-4.3,1.2-7.4,5.1-9.4a42.7,42.7,0,0,0,5.1-3c2.3-1.4,3.2-.4,3.4,1.9a15.8,15.8,0,0,1,.1,3.1Z" transform="translate(-258.2 -182.6)"/></svg>