<svg xmlns="http://www.w3.org/2000/svg" viewBox="0 0 83 139.2"><defs><style>.cls-1{fill:#fff;}</style></defs><g id="Layer_2" data-name="Layer 2"><g id="Layer_1-2" data-name="Layer 1"><path class="cls-1" d="M33.2,82.7V9.2c0-4.7,2.1-7.8,6.2-8.9A8.4,8.4,0,0,1,49.9,7.8V82.3A2.9,2.9,0,0,0,51.6,81l17-16.9a8.3,8.3,0,0,1,9.5-1.7,8.5,8.5,0,0,1,4.8,8.2A7.9,7.9,0,0,1,80.5,76L47.4,109a8.1,8.1,0,0,1-11.8,0L2.5,75.9A8.3,8.3,0,0,1,2.5,64a8.3,8.3,0,0,1,11.9.1l17,17Z"/><path class="cls-1" d="M41.3,139.1H8.6A8.3,8.3,0,0,1,.7,127.5c1.3-3.3,4.4-5.2,8.5-5.2H74.1c5.2,0,8.9,3.6,8.9,8.5s-3.7,8.3-8.8,8.3Z"/></g></g></svg>