<svg xmlns="http://www.w3.org/2000/svg" viewBox="0 0 274.1 274.1"><defs><style>.cls-1{fill:#380ade;}.cls-2{fill:none;stroke:#380ade;stroke-miterlimit:10;stroke-width:9px;}</style></defs><g id="Layer_2" data-name="Layer 2"><g id="Layer_1-2" data-name="Layer 1"><path class="cls-1" d="M274.1,147.7c-1.2,2.9-1,6.1-1.5,9.1A137.1,137.1,0,0,1,166.5,270.9C97.2,286.2,26.8,245.3,6.1,177.6A137.3,137.3,0,0,1,89.9,8.3,135.3,135.3,0,0,1,124.2.6c.6-.1,1.3.3,1.6-.6h20.9c.1.6.6.5,1,.5a113.8,113.8,0,0,1,30.1,5.8c53.2,18.6,85,55.6,94.8,111.3.6,3.1.4,6.3,1.5,9.3ZM264.9,137C264.9,66.5,207.5,9.1,137,9.1S9.1,66.5,9.1,137,66.6,265,137,264.9,264.9,207.4,264.9,137Z"/><path class="cls-1" d="M91.4,136.8a45.7,45.7,0,0,1,91.3.5c-.3,25.3-20.9,45.7-46,45.3A45.5,45.5,0,0,1,91.4,136.8Zm82.1.1a36.5,36.5,0,1,0-36.4,36.6A36.5,36.5,0,0,0,173.5,136.9Z"/><path class="cls-1" d="M200.9,86.7a13.7,13.7,0,1,1-13.6-13.6A13.7,13.7,0,0,1,200.9,86.7Zm-9.2,0a4.4,4.4,0,0,0-4.3-4.4,4.4,4.4,0,0,0-4.6,4.5,4.5,4.5,0,0,0,4.4,4.5A4.4,4.4,0,0,0,191.7,86.7Z"/><rect class="cls-2" x="63" y="63" width="148.1" height="148.09" rx="22.5"/></g></g></svg>