<svg xmlns="http://www.w3.org/2000/svg" viewBox="0 0 170.8 170.8"><defs><style>.cls-1{fill:#380ade;}</style></defs><g id="Layer_2" data-name="Layer 2"><g id="Layer_1-2" data-name="Layer 1"><path class="cls-1" d="M0,78.4c.7-1.7.6-3.5.9-5.3C6.2,37.5,32.5,8.9,68.1,1.9c32.1-6.3,59.7,3.2,81.7,27.6a79.7,79.7,0,0,1,20.5,47.3c2.4,25.4-5,47.7-22.2,66.6A83.4,83.4,0,0,1,102.9,169a59.5,59.5,0,0,1-10.3,1.5c-.3,0-.7-.1-.9.3h-13c-.1-.4-.5-.3-.8-.3a84.2,84.2,0,0,1-9.9-1.4A85.6,85.6,0,0,1,.9,97.5C.6,95.8.7,94.1,0,92.4Zm7.7,7c-.1,42.7,34.6,77.4,77.6,77.7s77.7-34.7,77.8-77.6S128.5,8,85.6,7.8,7.9,42.4,7.7,85.4Z"/><path class="cls-1" d="M93.1,80c3.9-5.9,9.5-6.7,15.6-5.9s7.9,3.8,9.7,8.3,1.9,7.6,2,11.5c0,7-.1,14.1,0,21.1,0,1.2-.3,1.5-1.6,1.5H106.3c-1.2,0-1.6-.2-1.5-1.5V94.1a18.9,18.9,0,0,0-.3-4.1c-.5-2.6-1.8-4.1-3.8-4.5a5.9,5.9,0,0,0-6.1,2.7,12,12,0,0,0-1.5,5.9c0,6.9,0,13.9.1,20.8,0,1.2-.2,1.6-1.5,1.6H79c-1.1,0-1.4-.3-1.4-1.4.1-13.3.1-26.7,0-40,0-1.1.4-1.4,1.4-1.4H91.9c1,0,1.3.3,1.3,1.3S93.1,78.2,93.1,80Z"/><path class="cls-1" d="M54.4,95c0-6.6,0-13.1-.1-19.7,0-1.2.2-1.6,1.5-1.6H68.7c.9,0,1.2.3,1.2,1.2v40.4c0,.9-.2,1.2-1.2,1.2H55.6c-1.2,0-1.3-.4-1.3-1.3C54.4,108.4,54.4,101.7,54.4,95Z"/><path class="cls-1" d="M62.1,54.4a7.8,7.8,0,0,1,.1,15.5,7.8,7.8,0,1,1-.1-15.5Z"/></g></g></svg>