<svg xmlns="http://www.w3.org/2000/svg" viewBox="0 0 47.6 47.6"><defs><style>.cls-1{fill:#380ade;}</style></defs><g id="Layer_2" data-name="Layer 2"><g id="Layer_1-2" data-name="Layer 1"><path class="cls-1" d="M0,10.9V8.5a.4.4,0,0,0,.1-.3A8.3,8.3,0,0,1,.7,6.1c.4-1,1.1-1.2,1.8-.4l4,4c.2.2.3.2.5,0L9.6,7.1c.3-.3.2-.4,0-.6l-4-4c-.7-.7-.5-1.4.3-1.7A8.6,8.6,0,0,1,10.4.1a9.6,9.6,0,0,1,8.5,12,.6.6,0,0,0,.2.7c.9.9,1.9,1.8,2.8,2.8s.4.2.6,0L36.9,1.2a3.5,3.5,0,0,1,5.3,0l4.1,4.1a3.5,3.5,0,0,1,0,5.4L32,25c-.2.3-.3.4,0,.7s1.9,1.8,2.8,2.8a.6.6,0,0,0,.7.1l1.6-.2a9.6,9.6,0,0,1,9.7,13.2c-.4.9-1.1,1-1.8.3l-4-4c-.2-.2-.3-.2-.5,0a31.9,31.9,0,0,1-2.6,2.6c-.2.3-.2.4,0,.6s2.4,2.5,3.7,3.7.8,1.8-.5,2.2l-2.2.6H36.7c-.1-.2-.3-.2-.5-.2a9.6,9.6,0,0,1-7.6-12,.4.4,0,0,0-.1-.5l-2.8-2.8c-.3-.3-.4-.3-.7,0-3.4,3.3-6.8,6.7-10.1,10.1a5.8,5.8,0,0,1-2.5,1.5L1.6,47.3c-.5.1-.9.1-1.2-.3s-.2-.7-.1-1.1c1.1-3.3,2.2-6.5,3.2-9.8A8.1,8.1,0,0,1,6.1,32l.5-.6c3-2.9,6-5.9,8.9-8.9.2-.1.4-.2.1-.5l-3-3h-.4l-2.2.4A9.7,9.7,0,0,1,.3,11.9,2.9,2.9,0,0,0,0,10.9Zm40.9,2.7-2.3-2.3c-.5-.5-.5-.5-1,0L25.7,23.2a.9.9,0,0,1-1.4.1c-.5-.4-.4-.9.1-1.4l1.3-1.4L36.5,9.8c.2-.3.3-.4,0-.7A20.8,20.8,0,0,1,34.4,7c-.3-.3-.4-.3-.7,0l-14,14L6.8,33.9c-.3.3-.3.4,0,.7l2.1,2.1c.3.3.4.3.7,0,2.8-2.8,5.6-5.7,8.5-8.5.1-.1.2-.3.4-.4a.9.9,0,0,1,1.1.1,1.1,1.1,0,0,1,.2,1.2l-.4.4-8.6,8.6c-.2.2-.2.3,0,.5a21.8,21.8,0,0,1,2.1,2.2c.3.2.5.3.8,0L40.5,13.9Zm4.5,26.1a6.6,6.6,0,0,0,.2-3.1,7.9,7.9,0,0,0-10.3-6,1.1,1.1,0,0,1-1.3-.3L30.7,27c-.3-.3-.4-.3-.6-.1s-2.1,2.2-3.2,3.2-.2.4,0,.6l3.3,3.2a1.4,1.4,0,0,1,.4,1.6,7.7,7.7,0,0,0,9.1,10l-3.8-3.8c-.7-.7-.7-1.1,0-1.7l4-4.1c.7-.6,1.1-.6,1.7,0ZM2.1,7.9A7.3,7.3,0,0,0,2,11.2,7.7,7.7,0,0,0,12.1,17a1.4,1.4,0,0,1,1.5.3l3.3,3.4c.2.2.3.2.5,0s2.1-2.2,3.2-3.2.2-.4,0-.6l-3.3-3.3a1.2,1.2,0,0,1-.4-1.4A7.7,7.7,0,0,0,10.9,2a6.5,6.5,0,0,0-3.1.1l3.9,3.8c.6.7.6,1.1,0,1.7L7.6,11.7a1,1,0,0,1-1.7,0Zm37.4-6a1.8,1.8,0,0,0-1.2.5L35.6,5.1c-.2.2-.2.3,0,.5L41.9,12c.2.2.3.2.5,0l2.8-2.8a1.6,1.6,0,0,0,0-2.4L40.7,2.4A1.3,1.3,0,0,0,39.5,1.9ZM11.4,42.1,5.5,36.2c-.3.7-.5,1.6-.8,2.5s-.1.3.1.5l3.6,3.6c.1.1.2.2.4.1ZM2.6,45l3.9-1.3L3.9,41Z"/></g></g></svg>