<svg xmlns="http://www.w3.org/2000/svg" viewBox="0 0 147.6 147.6"><defs><style>.cls-1{fill:#380ade;}</style></defs><g id="Layer_2" data-name="Layer 2"><g id="Layer_1-2" data-name="Layer 1"><path class="cls-1" d="M73.8,0A73.8,73.8,0,1,1,0,74.3,73.8,73.8,0,0,1,73.8,0Zm0,9.8c-35.2,0-64,28.7-64,63.7s28.5,64.3,63.8,64.3a64,64,0,0,0,64.1-64.1C137.8,38.6,109,9.8,73.8,9.8Z"/><path class="cls-1" d="M78.7,51.4v55.9a7.7,7.7,0,0,1-.3,2.6,4.9,4.9,0,0,1-5.2,3.2,4.8,4.8,0,0,1-4.3-4.4,8.6,8.6,0,0,1-.1-1.6V51.3c-3.7,3.8-7.4,7.4-11,11a4.9,4.9,0,1,1-7.1-6.8L64.9,41.2l5-5c2.4-2.3,5.3-2.4,7.6,0L96.8,55.4a5,5,0,1,1-7,7Z"/></g></g></svg>